<svg width="100" height="47" viewBox="0 0 100 47" fill="none" xmlns="http://www.w3.org/2000/svg">
<rect x="0.5" y="0.5" width="99" height="46" rx="11.5" stroke="#484C56"/>
<path fill-rule="evenodd" clip-rule="evenodd" d="M28.8767 13.4809C28.115 14.393 26.8962 15.1123 25.6773 15.0095C25.5249 13.7763 26.1215 12.4662 26.82 11.6571C27.5816 10.7193 28.9148 10.0513 29.9941 10C30.1211 11.2845 29.6259 12.5433 28.8767 13.4809ZM29.9813 15.2536C28.9076 15.1911 27.9278 15.5803 27.1363 15.8947C26.6271 16.097 26.1957 16.2683 25.8676 16.2683C25.4994 16.2683 25.0503 16.0878 24.5461 15.8851C23.8854 15.6197 23.1301 15.3161 22.3379 15.3306C20.5224 15.3564 18.8336 16.3968 17.9067 18.0537C16.0022 21.3678 17.4116 26.2745 19.2526 28.972C20.1542 30.3078 21.2333 31.7722 22.6553 31.7207C23.281 31.6969 23.731 31.5037 24.1967 31.3037C24.7329 31.0735 25.2899 30.8345 26.1596 30.8345C26.9993 30.8345 27.532 31.0674 28.0432 31.2909C28.5293 31.5035 28.9963 31.7075 29.6893 31.6951C31.1623 31.6694 32.089 30.3593 32.9906 29.0233C33.9634 27.5895 34.3908 26.1903 34.4558 25.978L34.4634 25.9534C34.4634 25.9534 34.4498 25.9462 34.4285 25.9365C34.1033 25.7858 31.6177 24.6346 31.5938 21.5476C31.57 18.9566 33.5654 17.6437 33.8796 17.437C33.8987 17.4244 33.9115 17.4159 33.9173 17.4115C32.6477 15.5105 30.6669 15.3049 29.9813 15.2536ZM40.1768 31.5538V11.5286H47.6044C51.439 11.5286 54.118 14.2002 54.118 18.1052C54.118 22.01 51.388 24.7074 47.5029 24.7074H43.2495V31.5538H40.1768ZM43.2495 14.1489H46.7918C49.4582 14.1489 50.9817 15.5875 50.9817 18.118C50.9817 20.6485 49.4582 22.1 46.7792 22.1H43.2495V14.1489ZM64.2626 29.1518C63.45 30.7188 61.6597 31.7079 59.7299 31.7079C56.873 31.7079 54.8797 29.9867 54.8797 27.3921C54.8797 24.8231 56.8097 23.346 60.3775 23.1275L64.2118 22.8962V21.7917C64.2118 20.1603 63.158 19.274 61.2789 19.274C59.7299 19.274 58.5999 20.0833 58.3713 21.3163H55.6034C55.6922 18.7217 58.1047 16.8335 61.3677 16.8335C64.8846 16.8335 67.1702 18.696 67.1702 21.5861V31.5538H64.3261V29.1518H64.2626ZM60.5552 29.3317C58.9173 29.3317 57.8761 28.5352 57.8761 27.3149C57.8761 26.0562 58.8792 25.3239 60.7964 25.2085L64.2118 24.99V26.1204C64.2118 27.9957 62.6374 29.3317 60.5552 29.3317ZM76.6038 32.3374C75.3723 35.844 73.9629 37 70.9664 37C70.738 37 69.9762 36.9743 69.7983 36.923V34.521C69.9888 34.5467 70.4587 34.5723 70.6999 34.5723C72.0584 34.5723 72.8202 33.9943 73.2899 32.4915L73.5693 31.6051L68.3636 17.0261H71.5759L75.1945 28.8563H75.258L78.8766 17.0261H82L76.6038 32.3374Z" fill="white"/>
</svg>
