<svg width="100" height="47" viewBox="0 0 100 47" fill="none" xmlns="http://www.w3.org/2000/svg">
<rect x="0.5" y="0.5" width="99" height="46" rx="11.5" stroke="#484C56"/>
<path d="M48.0836 25.291V31.4699H46.1253V16.2172H51.319C52.5718 16.1929 53.776 16.6672 54.6882 17.543C55.6005 18.3579 56.1113 19.5378 56.087 20.7541C56.1113 21.9826 55.6005 23.1624 54.6882 23.9895C53.776 24.8531 52.657 25.291 51.3312 25.291H48.0836ZM48.0836 18.0903V23.4178H51.3677C52.0974 23.4422 52.8029 23.1502 53.3016 22.6272C54.3355 21.6298 54.3476 19.9878 53.3503 18.9539L53.3016 18.9053C52.8029 18.3701 52.0974 18.0782 51.3677 18.1025L48.0836 18.0903ZM60.5995 20.6933C62.047 20.6933 63.1903 21.0825 64.0296 21.8488C64.8688 22.6272 65.2824 23.6854 65.2824 25.0355V31.4577H63.4093V30.0103H63.3241C62.5092 31.2023 61.4388 31.7983 60.0887 31.7983C58.9453 31.7983 57.9723 31.4577 57.206 30.7766C56.4519 30.1441 56.0262 29.2075 56.0505 28.2223C56.0505 27.1398 56.464 26.2884 57.279 25.6437C58.0939 24.9991 59.1886 24.6828 60.5509 24.6828C61.7186 24.6828 62.6673 24.9017 63.4214 25.3153V24.8653C63.4214 24.1963 63.1295 23.5638 62.6186 23.1381C62.0956 22.6759 61.4266 22.4204 60.7333 22.4204C59.6387 22.4204 58.7751 22.8826 58.1304 23.8071L56.4032 22.7245C57.3398 21.3744 58.7386 20.6933 60.5995 20.6933ZM58.0696 28.271C58.0696 28.7818 58.3129 29.2562 58.7142 29.5481C59.1521 29.8887 59.6873 30.0711 60.2347 30.059C61.0617 30.059 61.8524 29.7305 62.4362 29.1467C63.0808 28.5386 63.4093 27.8209 63.4093 26.9938C62.8011 26.5073 61.9497 26.264 60.855 26.264C60.0644 26.264 59.3954 26.4586 58.8602 26.8357C58.3372 27.2249 58.0696 27.6993 58.0696 28.271ZM76.0347 21.0338L69.4909 36.0676H67.4718L69.9044 30.8131L65.5986 21.046H67.7272L70.8288 28.5386H70.8775L73.9061 21.046L76.0347 21.0338Z" fill="white"/>
<path d="M40.1654 23.9526C40.1654 23.3566 40.1168 22.7606 40.0195 22.1768H31.7606V25.546H36.4921C36.2975 26.6285 35.665 27.6016 34.7406 28.2097V30.3991H37.5625C39.2167 28.8787 40.1654 26.6285 40.1654 23.9526Z" fill="#4285F4"/>
<path d="M31.7605 32.5155C34.1202 32.5155 36.115 31.7371 37.5624 30.3991L34.7405 28.2097C33.9499 28.7449 32.9404 29.049 31.7605 29.049C29.4738 29.049 27.5399 27.5043 26.8466 25.4365H23.9396V27.6989C25.4235 30.6424 28.4521 32.5155 31.7605 32.5155Z" fill="#34A853"/>
<path d="M26.8466 25.4368C26.4817 24.3543 26.4817 23.1745 26.8466 22.0798V19.8296H23.9396C23.3219 21.0471 23 22.3931 23 23.7583C23 25.1235 23.3219 26.4695 23.9396 27.687L26.8466 25.4368Z" fill="#FBBC04"/>
<path d="M31.7605 18.467C33.0133 18.4427 34.2175 18.9171 35.1176 19.7807L37.611 17.2872C36.0298 15.7911 33.9377 14.9762 31.7605 15.0005C28.4521 15.0005 25.4235 16.8737 23.9396 19.8293L26.8466 22.0917C27.5399 20.0118 29.4738 18.467 31.7605 18.467Z" fill="#EA4335"/>
</svg>
