<svg width="67" height="26" viewBox="0 0 67 26" fill="none" xmlns="http://www.w3.org/2000/svg">
<g clip-path="url(#clip0_1_96)">
<path d="M15.847 0.500002C13.269 0.500002 10.797 1.508 8.97399 3.303L3.02599 9.162C1.20399 10.956 0.180993 13.39 0.179993 15.927C0.179993 21.216 4.53099 25.5 9.89799 25.5C12.475 25.5 14.948 24.492 16.771 22.697L20.885 18.645L32.872 6.839C34.013 5.714 35.666 5.255 37.236 5.625C38.806 5.995 40.067 7.142 40.568 8.653L44.351 4.927C42.567 2.168 39.475 0.498002 36.154 0.500002C33.577 0.500002 31.104 1.508 29.282 3.303L13.18 19.162C11.368 20.947 8.42899 20.947 6.61599 19.161C4.80399 17.376 4.80399 14.482 6.61699 12.697L12.564 6.838C13.705 5.714 15.358 5.254 16.928 5.624C18.498 5.994 19.76 7.142 20.26 8.653L24.043 4.928C22.26 2.169 19.168 0.499002 15.847 0.500002Z" fill="#868C98"/>
<path d="M33.488 19.161C32.347 20.286 30.695 20.746 29.125 20.376C27.555 20.006 26.293 18.859 25.792 17.348L22.01 21.072C23.793 23.831 26.884 25.501 30.205 25.5C32.782 25.5 35.255 24.492 37.077 22.697L53.179 6.838C54.992 5.053 57.93 5.053 59.743 6.839C61.555 8.624 61.555 11.518 59.742 13.303L53.795 19.162C52.654 20.286 51.001 20.746 49.431 20.376C47.861 20.006 46.599 18.858 46.099 17.347L42.316 21.072C44.1 23.832 47.192 25.502 50.513 25.5C53.091 25.5 55.563 24.492 57.386 22.697L63.334 16.838C65.156 15.044 66.179 12.61 66.18 10.073C66.18 4.784 61.829 0.5 56.462 0.5C53.885 0.5 51.412 1.508 49.589 3.303L33.488 19.162V19.161Z" fill="#868C98"/>
</g>
<defs>
<clipPath id="clip0_1_96">
<rect width="66" height="25" fill="white" transform="translate(0.179993 0.5)"/>
</clipPath>
</defs>
</svg>
