<svg width="80" height="20" viewBox="0 0 80 20" fill="none" xmlns="http://www.w3.org/2000/svg">
<g clip-path="url(#clip0_1_100)">
<path d="M5.36199 1.68799V19.5H0.679993V1.68799H5.36199ZM7.70199 1.68799H17.651C20.882 1.68799 23.502 4.34599 23.502 7.62499C23.502 10.904 20.882 13.563 17.651 13.563H12.384V19.5H7.70199V1.68799ZM12.384 8.81299H17.651C18.296 8.81299 18.82 8.28099 18.821 7.62499C18.821 6.96999 18.297 6.43799 17.651 6.43799H12.384V8.81299ZM41.058 1.68799V10.891C41.058 13.022 42.761 14.75 44.862 14.75C46.962 14.75 48.665 13.022 48.665 10.891V1.68799H53.347V10.891C53.347 15.645 49.548 19.5 44.862 19.5C40.175 19.5 36.376 15.645 36.376 10.891V1.68799H41.058Z" fill="#868C98"/>
<path d="M25.258 9.99999C25.258 5.40899 28.926 1.68799 33.451 1.68799H34.621V6.43799H33.451C31.511 6.43799 29.939 8.03299 29.939 9.99999V10.594C29.939 15.512 26.009 19.5 21.162 19.5H20.576V14.75H21.162C23.424 14.75 25.258 12.889 25.258 10.594V9.99999Z" fill="#868C98"/>
<path d="M79.68 2.281C79.68 2.754 79.494 3.207 79.165 3.541C78.836 3.875 78.39 4.063 77.924 4.063C77.459 4.063 77.013 3.875 76.683 3.541C76.354 3.207 76.169 2.754 76.169 2.281C76.169 1.808 76.354 1.355 76.683 1.021C77.013 0.687 77.459 0.5 77.924 0.5C78.39 0.5 78.836 0.687 79.165 1.021C79.494 1.355 79.68 1.808 79.68 2.281ZM58.373 19.5L60.607 10.009L62.268 15.719C63.258 19.124 68.013 19.124 69.003 15.719L70.664 10.009L72.898 19.5H77.711L74.198 4.576C73.363 1.026 68.433 0.894 67.415 4.395L65.636 10.514L63.856 4.395C62.838 0.895 57.908 1.026 57.073 4.576L53.56 19.5H58.373Z" fill="#868C98"/>
</g>
<defs>
<clipPath id="clip0_1_100">
<rect width="79" height="19" fill="white" transform="translate(0.679993 0.5)"/>
</clipPath>
</defs>
</svg>
