<svg width="89" height="20" viewBox="0 0 89 20" fill="none" xmlns="http://www.w3.org/2000/svg">
<g clip-path="url(#clip0_1_107)">
<path d="M7.67999 14C6.29899 14 5.17999 12.881 5.17999 11.5V0H0.179993V11.5C0.179993 15.642 3.53799 19 7.67999 19H13.18V14H7.67999ZM22.68 5C20.195 5 18.18 7.015 18.18 9.5C18.18 11.985 20.195 14 22.68 14C25.165 14 27.18 11.985 27.18 9.5C27.18 7.015 25.165 5 22.68 5ZM13.18 9.5C13.18 4.254 17.434 0 22.68 0C27.926 0 32.18 4.254 32.18 9.5C32.18 14.746 27.926 19 22.68 19C17.434 19 13.18 14.746 13.18 9.5ZM76.68 5C74.195 5 72.18 7.015 72.18 9.5C72.18 11.985 74.195 14 76.68 14C79.165 14 81.18 11.985 81.18 9.5C81.18 7.015 79.165 5 76.68 5ZM67.18 9.5C67.18 4.254 71.434 0 76.68 0C81.926 0 86.18 4.254 86.18 9.5C86.18 14.746 81.926 19 76.68 19C71.434 19 67.18 14.746 67.18 9.5ZM42.68 0C37.434 0 33.18 4.254 33.18 9.5C33.18 14.746 37.434 19 42.68 19H56.68C57.664 19 58.614 18.85 59.507 18.572L62.18 20L65.064 14.598C65.797 13.223 66.18 11.689 66.18 10.13V9.5C66.18 4.254 61.926 0 56.68 0H42.68ZM61.18 9.5C61.18 7.015 59.165 5 56.68 5H42.68C40.195 5 38.18 7.015 38.18 9.5C38.18 11.985 40.195 14 42.68 14H56.68C59.152 14 61.161 12.007 61.18 9.535V9.5Z" fill="#868C98"/>
<path d="M88.18 1.25C88.18 1.94 87.62 2.5 86.93 2.5C86.24 2.5 85.68 1.94 85.68 1.25C85.68 0.56 86.24 0 86.93 0C87.62 0 88.18 0.56 88.18 1.25Z" fill="#868C98"/>
</g>
<defs>
<clipPath id="clip0_1_107">
<rect width="88" height="20" fill="white" transform="translate(0.179993)"/>
</clipPath>
</defs>
</svg>
