<svg width="73" height="30" viewBox="0 0 73 30" fill="none" xmlns="http://www.w3.org/2000/svg">
<g clip-path="url(#clip0_1_127)">
<path d="M3.61402 3.57C3.80202 2.676 4.68702 1.95 5.58902 1.95H10.494L6.41502 21.397H1.51102C0.608021 21.397 0.0270215 20.672 0.215022 19.776L3.61402 3.57ZM19.963 3.57C20.151 2.676 21.036 1.95 21.938 1.95H26.843L22.764 21.397H17.86C16.957 21.397 16.376 20.672 16.564 19.776L19.963 3.57ZM52.662 3.57C52.849 2.676 53.734 1.95 54.637 1.95H59.542L55.463 21.397H50.558C49.655 21.397 49.075 20.672 49.263 19.776L52.662 3.57ZM28.478 1.95H33.383C34.286 1.95 34.866 2.675 34.678 3.57L31.279 19.776C31.092 20.672 30.207 21.397 29.304 21.397H24.399L28.478 1.95ZM61.177 1.95H66.082C66.984 1.95 67.565 2.675 67.377 3.57L63.977 19.776C63.79 20.672 62.906 21.397 62.003 21.397H57.097L61.177 1.95ZM36.313 3.57C36.5 2.676 37.385 1.95 38.287 1.95H43.193L39.113 21.397H34.209C33.306 21.397 32.725 20.672 32.914 19.776L36.313 3.57ZM44.827 1.95H49.733C50.635 1.95 51.215 2.675 51.027 3.57L45.929 27.88C45.74 28.774 44.856 29.5 43.953 29.5H39.048L44.827 1.95ZM9.41002 14.914H15.949L14.93 19.776C14.742 20.672 13.857 21.397 12.955 21.397H8.05002L9.40902 14.915L9.41002 14.914ZM32.234 23.018H38.773L37.414 29.5H32.509C31.606 29.5 31.026 28.775 31.214 27.88L32.234 23.018ZM49.985 24.525L49.157 28.473C49.121 28.643 49.065 28.689 48.894 28.689H48.517C48.346 28.689 48.308 28.643 48.344 28.473L49.172 24.525C49.208 24.356 49.265 24.309 49.436 24.309H49.812C49.984 24.309 50.021 24.356 49.985 24.525ZM51.074 27.189H50.997C50.915 27.189 50.886 27.212 50.869 27.294L50.622 28.473C50.586 28.643 50.529 28.689 50.358 28.689H49.981C49.81 28.689 49.773 28.643 49.808 28.473L50.636 24.525C50.672 24.356 50.73 24.309 50.9 24.309H51.678C52.574 24.309 52.913 24.63 52.747 25.418L52.609 26.079C52.443 26.868 51.97 27.189 51.074 27.189ZM51.301 25.232L51.085 26.266C51.067 26.348 51.086 26.371 51.169 26.371H51.293C51.581 26.371 51.736 26.254 51.798 25.956L51.885 25.541C51.947 25.244 51.842 25.127 51.553 25.127H51.43C51.348 25.127 51.319 25.15 51.301 25.232ZM53.993 25.868L54.605 26.546C54.926 26.897 54.971 27.107 54.888 27.498L54.867 27.603C54.712 28.339 54.343 28.748 53.489 28.748C52.635 28.748 52.424 28.404 52.621 27.463L52.646 27.347C52.682 27.177 52.739 27.13 52.909 27.13H53.31C53.481 27.13 53.518 27.177 53.482 27.346L53.428 27.603C53.379 27.837 53.454 27.93 53.66 27.93C53.867 27.93 53.979 27.843 54.024 27.633L54.047 27.521C54.081 27.358 54.063 27.276 53.886 27.084L53.31 26.459C52.987 26.114 52.946 25.915 53.028 25.523L53.055 25.396C53.209 24.66 53.578 24.25 54.432 24.25C55.287 24.25 55.498 24.595 55.3 25.536L55.276 25.652C55.24 25.822 55.183 25.868 55.012 25.868H54.611C54.441 25.868 54.403 25.822 54.438 25.652L54.492 25.396C54.541 25.162 54.467 25.069 54.261 25.069C54.055 25.069 53.942 25.156 53.898 25.366L53.877 25.465C53.841 25.635 53.86 25.717 53.993 25.868ZM57.443 24.525C57.479 24.356 57.535 24.309 57.707 24.309H58.083C58.254 24.309 58.292 24.356 58.256 24.525L57.64 27.463C57.442 28.404 57.087 28.748 56.233 28.748C55.379 28.748 55.168 28.404 55.365 27.463L55.981 24.525C56.017 24.356 56.074 24.309 56.245 24.309H56.622C56.793 24.309 56.83 24.356 56.795 24.525L56.149 27.603C56.1 27.837 56.181 27.93 56.405 27.93C56.622 27.93 56.748 27.837 56.797 27.603L57.443 24.525ZM59.895 26.902C59.898 26.949 59.913 26.96 59.942 26.96C59.971 26.96 59.992 26.949 60.013 26.902L61.032 24.461C61.081 24.338 61.14 24.309 61.288 24.309H61.86C62.03 24.309 62.068 24.356 62.032 24.525L61.204 28.473C61.168 28.643 61.111 28.689 60.94 28.689H60.669C60.499 28.689 60.461 28.643 60.497 28.473L60.894 26.581C60.905 26.529 60.895 26.517 60.86 26.517C60.836 26.517 60.81 26.529 60.795 26.57L59.973 28.497C59.914 28.637 59.838 28.689 59.668 28.689H59.508C59.331 28.689 59.278 28.637 59.278 28.497L59.257 26.569C59.254 26.528 59.244 26.517 59.215 26.517C59.18 26.517 59.165 26.529 59.154 26.581L58.758 28.473C58.722 28.643 58.666 28.689 58.494 28.689H58.224C58.052 28.689 58.015 28.643 58.051 28.473L58.879 24.525C58.915 24.356 58.972 24.309 59.142 24.309H59.632C59.838 24.309 59.904 24.356 59.903 24.561L59.895 26.902ZM72.18 1.95C72.18 2.751 71.539 3.4 70.749 3.4C70.369 3.399 70.004 3.245 69.736 2.973C69.467 2.702 69.317 2.333 69.319 1.95C69.319 1.149 69.96 0.5 70.749 0.5C71.539 0.5 72.18 1.149 72.18 1.95Z" fill="#868C98"/>
</g>
<defs>
<clipPath id="clip0_1_127">
<rect width="72" height="29" fill="white" transform="translate(0.180054 0.5)"/>
</clipPath>
</defs>
</svg>
