<svg width="51" height="51" viewBox="0 0 51 51" fill="none" xmlns="http://www.w3.org/2000/svg">
<mask id="mask0_1_370" style="mask-type:alpha" maskUnits="userSpaceOnUse" x="0" y="0" width="51" height="51">
<g clip-path="url(#clip0_1_370)">
<path fill-rule="evenodd" clip-rule="evenodd" d="M42 16.0559C37.057 18.3979 34.586 21.1509 34.586 24.3139C36.693 24.5479 38.435 25.3779 39.812 26.8039C41.19 28.2279 41.879 29.8779 41.879 31.7519C41.879 33.7429 41.21 35.4219 39.873 36.7889C38.536 38.1559 36.855 38.8389 34.829 38.8389C32.56 38.8389 30.596 37.9509 28.934 36.1739C27.274 34.3969 26.443 32.2399 26.443 29.7019C26.443 22.0879 30.859 16.1339 39.691 11.8389L42 16.0559ZM24.557 16.0559C19.574 18.3979 17.082 21.1509 17.082 24.3139C19.23 24.5479 20.992 25.3779 22.369 26.8039C23.747 28.2279 24.436 29.8779 24.436 31.7519C24.436 33.7429 23.757 35.4219 22.4 36.7889C21.043 38.1559 19.351 38.8389 17.326 38.8389C15.056 38.8389 13.102 37.9509 11.461 36.1739C9.821 34.3969 9 32.2399 9 29.7019C9 22.0879 13.396 16.1339 22.187 11.8389L24.557 16.0559Z" fill="white"/>
</g>
</mask>
<g mask="url(#mask0_1_370)">
<rect width="51" height="51" fill="white"/>
</g>
<defs>
<clipPath id="clip0_1_370">
<rect width="51" height="51" fill="white"/>
</clipPath>
</defs>
</svg>
