<svg width="100" height="47" viewBox="0 0 100 47" fill="none" xmlns="http://www.w3.org/2000/svg">
<rect x="0.5" y="0.5" width="99" height="46" rx="11.5" stroke="#484C56"/>
<path d="M38.5574 35.9355V34.0752C38.5574 33.3618 38.1232 32.8969 37.4106 32.8969C37.0363 32.8969 36.6358 33.0212 36.3565 33.421C36.1394 33.0796 35.8325 32.8969 35.3646 32.8969C35.1907 32.8894 35.0176 32.9251 34.8608 33.0009C34.704 33.0767 34.5685 33.1901 34.4663 33.3311V32.9568H33.8772V35.9333H34.4663V34.2302C34.4663 33.7062 34.7762 33.4554 35.2104 33.4554C35.6446 33.4554 35.8924 33.7346 35.8924 34.2302V35.9355H36.4816V34.2302C36.4816 33.7062 36.7915 33.4554 37.2257 33.4554C37.6599 33.4554 37.9076 33.7346 37.9076 34.2302V35.9355H38.5574ZM48.2309 32.9898H47.1454V32.0914H46.5578V32.9898H45.9379V33.5138H46.5578V34.9122C46.5578 35.5941 46.8056 35.9976 47.5497 35.9976C47.8316 35.9918 48.1078 35.9173 48.3544 35.7806L48.168 35.2565C48.0008 35.3611 47.8068 35.4149 47.6096 35.4115C47.2996 35.4115 47.1447 35.2251 47.1447 34.9152V33.4898H48.2302V32.9935L48.2309 32.9898ZM53.7496 32.8969C53.5891 32.8934 53.4305 32.9315 53.2892 33.0076C53.1478 33.0837 53.0287 33.1952 52.9434 33.3311V32.9568H52.3542V35.9333H52.9434V34.2616C52.9434 33.7653 53.1911 33.4554 53.5946 33.4554C53.7308 33.4609 53.8659 33.4818 53.9974 33.5175L54.1838 32.9591C54.0416 32.9232 53.8961 32.9024 53.7496 32.8969ZM45.4094 33.2069C45.0995 32.9898 44.6653 32.8969 44.2004 32.8969C43.4563 32.8969 42.9914 33.2383 42.9914 33.8274C42.9914 34.3238 43.3328 34.6022 43.9833 34.6958L44.2932 34.7265C44.6346 34.7887 44.8517 34.9129 44.8517 35.0679C44.8517 35.285 44.6039 35.4422 44.1383 35.4422C43.7827 35.4495 43.4345 35.3407 43.1464 35.1323L42.8365 35.5971C43.2706 35.9071 43.7977 35.9714 44.1091 35.9714C44.9775 35.9714 45.4423 35.5687 45.4423 35.0102C45.4423 34.4862 45.068 34.2354 44.419 34.1419L44.1091 34.1112C43.8299 34.0805 43.5851 33.9869 43.5851 33.8012C43.5851 33.5841 43.8329 33.4269 44.1742 33.4269C44.5485 33.4269 44.9183 33.5819 45.1047 33.6747L45.4094 33.2069ZM54.4009 34.4473C54.4009 35.3456 54.99 35.9976 55.9513 35.9976C56.3854 35.9976 56.6954 35.9048 57.0053 35.6563L56.6954 35.1914C56.4759 35.3691 56.2029 35.4675 55.9206 35.4706C55.3965 35.4706 54.99 35.0679 54.99 34.4787C54.99 33.8896 55.3913 33.4898 55.9206 33.4898C56.2029 33.493 56.4759 33.5913 56.6954 33.7691L57.0053 33.3042C56.6954 33.0564 56.3854 32.9628 55.9513 32.9628C55.0207 32.9007 54.4009 33.552 54.4009 34.451V34.4473ZM50.2461 32.8969C49.3778 32.8969 48.7886 33.5168 48.7886 34.4473C48.7886 35.3778 49.4085 35.9976 50.3075 35.9976C50.7449 36.0069 51.172 35.8646 51.5165 35.5949L51.2066 35.1607C50.9575 35.3538 50.6533 35.4623 50.3382 35.4706C49.9355 35.4706 49.5013 35.2228 49.4399 34.6958H51.6415V34.448C51.6415 33.5175 51.0831 32.8977 50.2461 32.8977V32.8969ZM50.2154 33.4554C50.6496 33.4554 50.9596 33.7346 50.9903 34.1995H49.3785C49.4713 33.7653 49.7528 33.4554 50.2154 33.4554ZM42.1852 34.4473V32.9591H41.596V33.3334C41.3789 33.0541 41.072 32.8992 40.6348 32.8992C39.7979 32.8992 39.1773 33.5505 39.1773 34.4495C39.1773 35.3486 39.7971 35.9999 40.6348 35.9999C41.069 35.9999 41.3789 35.8449 41.596 35.5657V35.94H42.1852V34.4473ZM39.7979 34.4473C39.7979 33.8888 40.1392 33.4554 40.7284 33.4554C41.2868 33.4554 41.6267 33.8896 41.6267 34.4473C41.6267 35.0364 41.2524 35.4392 40.7284 35.4392C40.1392 35.4699 39.7979 35.005 39.7979 34.4473ZM62.7111 32.8969C62.5507 32.8934 62.392 32.9315 62.2507 33.0076C62.1094 33.0837 61.9902 33.1952 61.9049 33.3311V32.9568H61.3157V35.9333H61.9042V34.2616C61.9042 33.7653 62.1519 33.4554 62.5554 33.4554C62.6916 33.4609 62.8267 33.4818 62.9582 33.5175L63.1446 32.9591C63.0024 32.9232 62.8569 32.9024 62.7104 32.8969H62.7111ZM60.4167 34.4473V32.9591H59.8275V33.3334C59.6104 33.0541 59.3035 32.8992 58.8663 32.8992C58.0294 32.8992 57.4088 33.5505 57.4088 34.4495C57.4088 35.3486 58.0286 35.9999 58.8663 35.9999C59.3005 35.9999 59.6104 35.8449 59.8275 35.5657V35.94H60.4167V34.4473ZM58.0294 34.4473C58.0294 33.8888 58.3707 33.4554 58.9599 33.4554C59.5183 33.4554 59.8582 33.8896 59.8582 34.4473C59.8582 35.0364 59.4839 35.4392 58.9599 35.4392C58.3707 35.4699 58.0294 35.005 58.0294 34.4473ZM66.401 34.4473V31.7808H65.8119V33.3311C65.5948 33.0519 65.2878 32.8969 64.8507 32.8969C64.0137 32.8969 63.3931 33.5482 63.3931 34.4473C63.3931 35.3464 64.013 35.9976 64.8507 35.9976C65.2848 35.9976 65.5948 35.8427 65.8119 35.5635V35.9378H66.401V34.4473ZM64.0137 34.4473C64.0137 33.8888 64.3551 33.4554 64.9442 33.4554C65.5027 33.4554 65.8426 33.8896 65.8426 34.4473C65.8426 35.0364 65.4683 35.4392 64.9442 35.4392C64.3543 35.4706 64.013 35.0057 64.013 34.4473H64.0137Z" fill="white"/>
<path d="M55.4863 10.3872H44.7274V27.936H55.4863V10.3872Z" fill="#FF5F00"/>
<path d="M45.8128 19.1617C45.8132 17.4735 46.1955 15.8072 46.931 14.2877C47.6666 12.7682 48.7364 11.4348 50.0604 10.3873C48.4139 9.09275 46.4364 8.2876 44.3539 8.06387C42.2714 7.84014 40.1679 8.20687 38.284 9.12214C36.4001 10.0374 34.8118 11.4643 33.7005 13.2396C32.5892 15.015 31.9999 17.0672 31.9999 19.1617C31.9999 21.2562 32.5892 23.3084 33.7005 25.0837C34.8118 26.8591 36.4001 28.286 38.284 29.2012C40.1679 30.1165 42.2714 30.4832 44.3539 30.2595C46.4364 30.0358 48.4139 29.2306 50.0604 27.9361C48.7364 26.8886 47.6666 25.5552 46.931 24.0357C46.1955 22.5161 45.8132 20.8499 45.8128 19.1617Z" fill="#EB001B"/>
<path d="M68.1367 19.1615C68.1382 21.2544 67.5507 23.3055 66.4412 25.0803C65.3318 26.855 63.7453 28.2816 61.8631 29.197C59.9809 30.1124 57.8791 30.4795 55.7981 30.2565C53.7171 30.0335 51.7408 29.2293 50.0954 27.9359C51.4196 26.8887 52.4897 25.5553 53.2253 24.0357C53.9609 22.5161 54.3431 20.8497 54.3431 19.1615C54.3431 17.4732 53.9609 15.8068 53.2253 14.2872C52.4897 12.7677 51.4196 11.4343 50.0954 10.3871C51.7408 9.09365 53.7171 8.28944 55.7981 8.06642C57.8791 7.8434 59.9809 8.21058 61.8631 9.12597C63.7453 10.0414 65.3318 11.468 66.4412 13.2427C67.5507 15.0174 68.1382 17.0685 68.1367 19.1615Z" fill="#F79E1B"/>
</svg>
