<svg width="23" height="21" viewBox="0 0 23 21" fill="none" xmlns="http://www.w3.org/2000/svg">
<path fill-rule="evenodd" clip-rule="evenodd" d="M1.58113 8.62012C7.75513 5.79766 11.8721 3.93692 13.932 3.03791C19.8136 0.471028 21.0357 0.0251346 21.8323 0.0104109C22.0075 0.00717258 22.3992 0.0527312 22.6529 0.268774C22.8672 0.451196 22.9262 0.697623 22.9544 0.870579C22.9826 1.04354 23.0177 1.43754 22.9898 1.7454C22.6711 5.25925 21.292 13.7865 20.5903 17.722C20.2935 19.3873 19.7089 19.9457 19.143 20.0003C17.9131 20.1191 16.9792 19.1475 15.788 18.3282C13.924 17.0461 12.8709 16.248 11.0616 14.9969C8.97061 13.5511 10.3261 12.7564 11.5178 11.4577C11.8296 11.1179 17.2485 5.9461 17.3534 5.47694C17.3665 5.41826 17.3787 5.19954 17.2549 5.08405C17.131 4.96856 16.9483 5.00805 16.8164 5.03946C16.6294 5.08398 13.6517 7.14916 7.88309 11.235C7.03787 11.844 6.27229 12.1407 5.58635 12.1251C4.83017 12.108 3.37557 11.6765 2.29422 11.3077C0.967909 10.8553 -0.0862189 10.6161 0.00557197 9.84787C0.0533823 9.4477 0.578568 9.03846 1.58113 8.62012Z" fill="#E6E6E6"/>
</svg>
