<svg width="75" height="47" viewBox="0 0 75 47" fill="none" xmlns="http://www.w3.org/2000/svg">
<rect x="0.5" y="0.5" width="74" height="46" rx="11.5" stroke="#484C56"/>
<path fill-rule="evenodd" clip-rule="evenodd" d="M25.4436 21.3184C31.0808 18.9193 34.8397 17.3377 36.7206 16.5735C42.0907 14.3917 43.2065 14.0126 43.9338 14.0001C44.0938 13.9974 44.4514 14.0361 44.6831 14.2197C44.8787 14.3748 44.9326 14.5843 44.9583 14.7313C44.9841 14.8783 45.0162 15.2132 44.9907 15.4749C44.6997 18.4617 43.4405 25.7098 42.7999 29.055C42.5288 30.4705 41.9951 30.9451 41.4784 30.9916C40.3554 31.0925 39.5027 30.2667 38.4151 29.5702C36.7132 28.4805 35.7517 27.8021 34.0997 26.7387C32.1906 25.5097 33.4282 24.8343 34.5162 23.7304C34.801 23.4415 39.7486 19.0455 39.8444 18.6467C39.8564 18.5968 39.8675 18.4109 39.7544 18.3127C39.6414 18.2146 39.4745 18.2481 39.3541 18.2748C39.1834 18.3127 36.4646 20.0681 31.1976 23.541C30.4259 24.0587 29.7269 24.3109 29.1006 24.2977C28.4102 24.2831 27.082 23.9163 26.0947 23.6028C24.8837 23.2183 23.9213 23.015 24.0051 22.362C24.0487 22.0218 24.5283 21.674 25.4436 21.3184Z" fill="white"/>
</svg>
