<svg width="100" height="47" viewBox="0 0 100 47" fill="none" xmlns="http://www.w3.org/2000/svg">
<rect x="0.5" y="0.5" width="99" height="46" rx="11.5" stroke="#484C56"/>
<path d="M38.7212 31.9078L41.5449 15.3387H46.0613L43.2356 31.9078H38.7212ZM59.5519 15.6959C58.6573 15.3602 57.2551 15 55.5043 15C51.0416 15 47.8981 17.2472 47.8715 20.468C47.8461 22.8489 50.1156 24.1771 51.8285 24.9696C53.5866 25.7818 54.1775 26.2997 54.1692 27.025C54.1581 28.1355 52.7653 28.6429 51.4673 28.6429C49.6596 28.6429 48.6993 28.3918 47.2161 27.7732L46.6341 27.5099L46.0002 31.2191C47.0551 31.6816 49.0058 32.0823 51.0311 32.103C55.7785 32.103 58.8603 29.8816 58.8955 26.4421C58.9123 24.5573 57.7091 23.1229 55.1035 21.9403C53.525 21.1739 52.5582 20.6623 52.5685 19.8863C52.5685 19.1975 53.3868 18.461 55.1548 18.461C56.6317 18.4382 57.7016 18.7602 58.5351 19.0958L58.9398 19.2871L59.5519 15.6959ZM71.1738 15.3385H67.684C66.6029 15.3385 65.7938 15.6336 65.319 16.7125L58.6118 31.8969H63.3543C63.3543 31.8969 64.1296 29.8551 64.305 29.407C64.8234 29.407 69.4303 29.4141 70.0891 29.4141C70.2242 29.9941 70.6384 31.8969 70.6384 31.8969H74.8293L71.1738 15.338V15.3385ZM65.6369 26.0378C66.0103 25.0832 67.4363 21.4061 67.4363 21.4061C67.4096 21.4502 67.8069 20.4467 68.035 19.8246L68.3402 21.2533C68.3402 21.2533 69.2051 25.2084 69.3858 26.0378H65.6369ZM34.8872 15.3385L30.4656 26.6379L29.9944 24.3416C29.1713 21.6947 26.6067 18.8269 23.7397 17.3912L27.7826 31.8815L32.561 31.8761L39.6711 15.3383H34.8872" fill="white"/>
<path d="M26.3401 15.3377H19.0576L19 15.6825C24.6656 17.054 28.4145 20.3684 29.971 24.3505L28.3874 16.7362C28.114 15.6871 27.3212 15.3741 26.3403 15.3374" fill="#F2AE14"/>
</svg>
