<svg width="75" height="47" viewBox="0 0 75 47" fill="none" xmlns="http://www.w3.org/2000/svg">
<rect x="0.5" y="0.5" width="74" height="46" rx="11.5" stroke="#484C56"/>
<path d="M52.3524 15.2792C51.996 13.9884 50.9456 12.972 49.6117 12.627C47.194 12 37.5 12 37.5 12C37.5 12 27.806 12 25.3883 12.627C24.0547 12.972 23.0041 13.9884 22.6477 15.2792C22 17.6187 22 22.5002 22 22.5002C22 22.5002 22 27.3815 22.6477 29.7208C23.0041 31.0116 24.0547 32.0283 25.3883 32.3733C27.806 33 37.5 33 37.5 33C37.5 33 47.194 33 49.6117 32.3733C50.9456 32.0283 51.996 31.0116 52.3524 29.7208C53 27.3815 53 22.5002 53 22.5002C53 22.5002 53 17.6187 52.3524 15.2792ZM34.3998 27.0002V18.0001L42.4537 22.5002L34.3998 27.0002Z" fill="white"/>
</svg>
